<svg width="295" height="297" viewBox="0 0 295 297" fill="none" xmlns="http://www.w3.org/2000/svg">
<path d="M63.9884 236.755C61.4808 236.956 60.1594 239.794 61.7295 241.608L82.7833 265.919C84.2124 267.569 87.0192 267.123 87.9633 265.094L100.533 238.092C101.478 236.064 99.8947 233.881 97.6123 234.064L63.9884 236.755Z" fill="#FCB570"/>
<path d="M104.377 257.182C139.212 273.161 224.292 284.913 264.791 199.75C273.721 167.223 275.529 93.93 232.463 65.317C214.757 54.3852 172.001 47.9584 153.149 97.7465C154.747 110.195 165.652 128.838 183.822 106.87C191.022 83.4012 186.891 29.764 116.029 30.4627C99.7675 30.1829 57.9801 44.7365 19.8009 86.6017" stroke="#FCB570" stroke-width="7" stroke-linecap="round" stroke-linejoin="round" stroke-dasharray="11 11"/>
</svg>
