<svg width="716" height="272" viewBox="0 0 716 272" fill="none" xmlns="http://www.w3.org/2000/svg">
<path d="M13.9155 246.763L13.9155 124.616L30.1176 95.0221C30.1176 95.0221 26.9048 106.513 57.1569 91.4737C87.1471 76.712 113.913 61.9036 113.913 61.9036L164.065 58.9709C163.01 59.7999 164.602 58.9787 164.602 58.9787L164.065 58.9709C165.119 58.142 169.349 55.3892 181.248 47.6821C204.521 32.8232 204.521 32.8232 204.521 32.8232L245.089 33.4101L272.04 26.2022L291.509 20.5744L319.049 26.6009L319.325 26.8863L319.318 26.6048L320.131 26.8979L374.485 20.0864L466.31 63.3435L493.445 63.7361L520.58 64.1287L561.601 72.3199L580.423 95.3856L621.164 92.0355L657.338 88.6192L666.657 96.3518L675.791 96.484C683.045 96.5889 694.329 96.7521 702.926 96.8765L702.926 246.763L13.9155 246.763Z" fill="#FFF4E9"/>
<path d="M19.9008 83.6184L13.9259 125.179L31.2276 107.701L50.8126 106.859L67.554 99.5034C67.554 99.5034 70.9511 95.6129 77.5789 92.0506C84.1999 88.2068 94.136 77.0945 97.6286 77.145C101.121 77.1956 110.877 69.7389 110.877 69.7389L124.311 69.9332C124.311 69.9332 137.839 74.0686 141.332 74.1191C144.824 74.1696 151.357 66.6663 151.357 66.6663L164.79 66.8606L168.282 66.9112L184.84 51.9551C184.84 51.9551 174.726 55.7484 194.953 48.1618C215.187 40.8567 215.187 40.8567 215.187 40.8567L218.68 40.9072L235.606 41.1521L265.78 33.9908L289.327 30.3918L309.745 30.6872L319.954 30.8349L330.259 34.9236L343.508 27.5175L373.867 27.9567L384.356 39.6459L391.072 39.743L401.377 43.8317L404.87 43.8823L415.175 47.9709L445.718 56.0106L459.431 67.7464L469.736 71.8351L479.945 71.9828L490.154 72.1305L503.587 72.3249L513.892 76.4136L527.509 84.2084C527.509 84.2084 531.002 84.2589 534.226 84.3055C537.45 84.3522 544.339 80.5122 544.339 80.5122L554.733 88.2604C554.733 88.2604 554.829 92.2014 558.321 92.2519C561.814 92.3025 568.53 92.3996 568.53 92.3996L578.924 100.148C578.924 100.148 575.615 107.698 592.453 104.283C609.283 100.587 609.283 100.587 609.283 100.587L632.925 100.929L643.134 101.077C643.134 101.077 640.01 116.227 650.035 108.774C660.06 101.322 673.677 109.116 673.677 109.116L680.394 109.214L687.015 105.37L703.756 98.0142L693.452 93.9255L689.959 93.875L679.212 93.7195L665.779 93.5252L662.102 85.8741L655.386 85.777L648.669 85.6798L638.46 85.5321L628.251 85.3844L621.439 81.3463L601.02 81.0509L587.587 80.8565L577.378 80.7088L570.566 76.6707L557.037 72.5353L548.882 68.4777L538.873 65.5189L530.813 65.4023L525.171 65.3207L512.877 56.7008L492.554 60.3464C492.554 60.3464 485.933 64.1902 482.345 60.1987C478.756 56.2072 475.533 56.1606 475.533 56.1606C472.04 56.11 465.323 56.0129 465.323 56.0129L434.457 45.7173L417.306 36.1829L413.718 32.1914L402.199 33.4318L391.517 24.8352L381.522 22.4394L373.145 20.3484L325.861 19.6644L319.24 23.5082L305.711 19.3729L294.757 21.747L287.207 20.5122L282.069 19.0308L241.78 29.9854L231.571 29.8377L228.079 29.7872L217.869 29.6395L204.532 33.3861L167.736 44.3912L157.527 44.2435L150.906 48.0873L151.002 52.0283C151.002 52.0283 147.509 51.9778 144.285 51.9312C140.793 51.8806 134.076 51.7835 134.076 51.7835L123.962 55.5768L117.246 55.4796L70.0407 69.1481C70.0407 69.1481 66.4525 65.1566 63.2286 65.1099C59.736 65.0594 53.2037 72.5627 53.2037 72.5627C53.2037 72.5627 70.1295 72.8076 53.2993 76.5037C36.4691 80.1998 32.9765 80.1493 32.9765 80.1493L23.036 80.0055L19.9008 83.6184Z" fill="#FCB570"/>
</svg>
