<svg width="507" height="517" viewBox="0 0 507 517" fill="none" xmlns="http://www.w3.org/2000/svg">
<path d="M262 367C74 363 8.66666 461 0 510L507 510L507 146C451 168.4 425.667 222 422 244C406 356.8 310.333 371.333 262 367Z" fill="#AFDAF8"/>
<path d="M50 514C61 507.333 77.6 499.2 132 488C157.908 483.59 216.955 462.887 256 426C287.787 395.97 319.922 343.159 335 285C339.107 264.167 350.804 228.106 364 195C373.69 170.69 383.233 150.276 396 127C408.431 104.337 427.188 81.3902 441 65C457.975 44.8567 491.963 18.5746 519 4" stroke="#E7F4FF" stroke-width="7"/>
</svg>
